<svg width="25" height="25" viewBox="0 0 25 25" fill="none" xmlns="http://www.w3.org/2000/svg">
<path d="M18.3693 13.3125H6.73388L5.58616 7H20.1951L19.1687 12.6453C19.1346 12.8326 19.036 13.0019 18.8899 13.1238C18.7438 13.2457 18.5595 13.3125 18.3693 13.3125Z" fill="white" stroke="white" stroke-width="1.5"/>
<path d="M17.9688 17.9688H6.81818L4.09391 2.98525C4.06118 2.80524 3.96631 2.64243 3.82584 2.52519C3.68538 2.40796 3.50822 2.34375 3.32526 2.34375H1.5625" stroke="white" stroke-width="1.5" stroke-linecap="round" stroke-linejoin="round"/>
<path d="M7.8125 21.875C8.89118 21.875 9.76562 21.0006 9.76562 19.9219C9.76562 18.8432 8.89118 17.9688 7.8125 17.9688C6.73382 17.9688 5.85938 18.8432 5.85938 19.9219C5.85938 21.0006 6.73382 21.875 7.8125 21.875Z" stroke="white" stroke-width="1.5" stroke-linecap="round" stroke-linejoin="round"/>
<path d="M17.9688 21.875C19.0474 21.875 19.9219 21.0006 19.9219 19.9219C19.9219 18.8432 19.0474 17.9688 17.9688 17.9688C16.8901 17.9688 16.0156 18.8432 16.0156 19.9219C16.0156 21.0006 16.8901 21.875 17.9688 21.875Z" stroke="white" stroke-width="1.5" stroke-linecap="round" stroke-linejoin="round"/>
<path d="M6.10795 14.0625H18.3693C18.7352 14.0625 19.0895 13.9341 19.3704 13.6996C19.6514 13.4652 19.8411 13.1395 19.9066 12.7795L21.0938 6.25H4.6875" stroke="white" stroke-width="1.5" stroke-linecap="round" stroke-linejoin="round"/>
</svg>
