<svg width="15" height="15" viewBox="0 0 15 15" xmlns="http://www.w3.org/2000/svg">
<path d="M6.12577 7.51217L0.285068 1.67129C-0.0950356 1.29136 -0.0950356 0.677076 0.285068 0.297151C0.664993 -0.0827742 1.27928 -0.0827742 1.6592 0.297151L7.50008 6.13803L13.3408 0.297151C13.7209 -0.0827742 14.335 -0.0827742 14.7149 0.297151C15.095 0.677076 15.095 1.29136 14.7149 1.67129L8.87422 7.51217L14.7149 13.353C15.095 13.733 15.095 14.3473 14.7149 14.7272C14.5256 14.9167 14.2766 15.0119 14.0279 15.0119C13.7791 15.0119 13.5303 14.9167 13.3408 14.7272L7.50008 8.8863L1.6592 14.7272C1.46969 14.9167 1.22091 15.0119 0.972136 15.0119C0.723361 15.0119 0.474586 14.9167 0.285068 14.7272C-0.0950356 14.3473 -0.0950356 13.733 0.285068 13.353L6.12577 7.51217Z"/>
</svg>
