<svg width="290" height="70" viewBox="0 0 290 70" fill="none" xmlns="http://www.w3.org/2000/svg">
<g clip-path="url(#clip0_46_770)">
<path fill-rule="evenodd" clip-rule="evenodd" d="M37.301 25.9021C26.4117 26.4015 15.6193 27.5928 4.78516 27.7529C6.65596 18.4022 11.9789 11.0617 20.8411 5.77988L14.1168 0C29.01 5.40286 37.4147 14.534 40.359 26.7974C39.1801 26.782 38.3361 25.8545 37.301 25.9021Z" fill="#282828"/>
<path fill-rule="evenodd" clip-rule="evenodd" d="M38.386 40.2339C27.895 47.2428 15.4858 49.6714 2.90424 50.0177C0.976938 50.0709 0.00387047 50.9963 0.0980383 52.831C0.35264 57.7862 0.972753 62.9436 3.28091 67.6602C4.65995 70.4764 9.04538 70.326 11.7316 69.4173L37.9165 60.559C42.4373 51.3041 44.0891 42.0302 42.5649 32.7984C42.3522 31.5085 40.5623 31.5239 40.3726 32.7984C39.9903 35.3732 40.5916 38.7601 38.386 40.2339Z" fill="#282828"/>
<path fill-rule="evenodd" clip-rule="evenodd" d="M0.00813037 47.2449L1.98705 32.1471C2.14748 30.9202 3.52652 30.3949 5.05622 30.3683C14.6732 30.2012 24.3083 29.743 33.9148 28.6028C34.9744 28.4769 35.1006 29.5457 33.9148 29.6625C17.289 31.3063 2.87083 34.9206 0.968642 47.2449C0.840993 48.0752 -0.0965006 48.0437 0.00813037 47.2449Z" fill="#E4E4E4"/>
<path fill-rule="evenodd" clip-rule="evenodd" d="M31.9258 6.16318L32.2097 3.23092C32.2794 2.48877 32.9979 1.81586 33.7694 1.81586H38.2783C39.1579 1.81586 39.8129 2.41742 39.9342 3.23092L40.5669 7.45584C40.9401 9.94602 44.4166 10.9078 45.8543 8.8765L48.311 5.40284C48.8272 4.67117 49.8581 4.33682 50.624 4.78169L54.5247 7.03964C55.2982 7.48452 55.4538 8.39385 55.1141 9.24513L53.396 13.5701C52.642 15.4685 55.0513 17.888 56.8775 17.0612L60.993 15.1992C61.7965 14.8355 62.8833 14.7571 63.2718 15.4321L65.7941 19.8137C66.1303 20.3971 65.9539 21.1847 65.4663 21.5897L61.5412 24.8479C60.0283 26.107 60.9037 29.4079 62.8059 29.58L67.1585 29.9752C68.5661 30.1025 69.3788 30.8272 69.3788 32.2017V36.2286C69.3788 37.1555 68.8431 37.764 67.6865 37.9256L63.2997 38.5418C61.2036 38.8349 60.4021 42.0792 62.0086 43.3746L65.7906 46.4244C66.4456 46.9525 66.7504 47.7737 66.341 48.4844L64.1298 52.3218C63.4685 53.4731 44.9907 58.429 42.5012 59.1831C45.8029 51.3217 47.1673 43.4504 46.5943 35.569C46.5378 34.7996 47.416 34.787 47.5988 35.569C48.6451 40.0457 49.2087 44.4232 49.0267 48.8376C60.1371 37.7927 56.0209 19.8571 40.0947 16.1715C37.963 12.4936 35.3647 9.08565 31.9258 6.16318Z" fill="#E94A4B"/>
<path d="M100.34 46.0516V31.2574L95.0035 42.0295H91.8646L86.5284 31.2574V46.0516H80.8086V21.2197H87.0167L93.4341 34.1953L99.8863 21.2197H106.06V46.0516H100.34Z" fill="#282828"/>
<path d="M122.521 46.2265C120.661 46.2265 118.981 45.8709 117.481 45.1598C116.013 44.4723 114.697 43.4972 113.61 42.2919C112.537 41.105 111.691 39.7296 111.116 38.2348C110.538 36.7466 110.242 35.163 110.244 33.5657C110.237 31.946 110.551 30.341 111.169 28.8442C111.777 27.3623 112.652 26.005 113.749 24.8396C114.859 23.6584 116.193 22.7129 117.674 22.0591C119.185 21.3834 120.835 21.0453 122.626 21.0449C124.462 21.0449 126.13 21.4004 127.631 22.1116C129.102 22.8018 130.419 23.7832 131.502 24.997C132.573 26.1925 133.418 27.5731 133.996 29.0715C134.57 30.5368 134.865 32.0965 134.868 33.6706C134.875 35.2887 134.567 36.8925 133.961 38.3922C132.74 41.4101 130.412 43.8444 127.457 45.1947C125.957 45.883 124.312 46.2269 122.521 46.2265ZM116.069 33.6357C116.067 34.5784 116.208 35.516 116.487 36.4161C116.75 37.2839 117.17 38.096 117.725 38.8119C118.275 39.5145 118.971 40.0876 119.766 40.4907C120.579 40.9104 121.509 41.1202 122.556 41.1202C123.648 41.1202 124.601 40.9045 125.416 40.4732C126.212 40.0568 126.903 39.4649 127.439 38.7419C127.978 38.0085 128.386 37.1858 128.642 36.3112C128.908 35.4204 129.043 34.4956 129.043 33.5657C129.046 32.6286 128.905 31.6967 128.624 30.8027C128.354 29.9343 127.929 29.1225 127.369 28.407C126.819 27.7027 126.115 27.1344 125.311 26.7457C124.496 26.3498 123.578 26.1516 122.556 26.1511C121.462 26.1511 120.515 26.361 119.713 26.7807C118.923 27.1903 118.232 27.7694 117.69 28.4769C117.138 29.1986 116.724 30.0169 116.47 30.8902C116.203 31.7809 116.069 32.7058 116.069 33.6357H116.069Z" fill="#282828"/>
<path d="M157.435 26.2561H149.901V46.0516H144.182V26.2561H136.613V21.2197H157.435V26.2561Z" fill="#282828"/>
<path d="M171.455 46.2265C169.594 46.2265 167.915 45.8709 166.415 45.1598C164.947 44.4723 163.63 43.4972 162.543 42.2919C161.47 41.1048 160.625 39.7295 160.05 38.2348C159.472 36.7465 159.176 35.163 159.178 33.5657C159.171 31.946 159.485 30.3411 160.102 28.8442C160.712 27.3626 161.586 26.0054 162.683 24.8396C163.792 23.6588 165.126 22.7133 166.607 22.0591C168.118 21.3834 169.769 21.0453 171.559 21.0449C173.396 21.0449 175.064 21.4004 176.564 22.1116C178.035 22.8018 179.352 23.7832 180.435 24.997C181.506 26.1923 182.351 27.573 182.929 29.0715C183.503 30.5367 183.799 32.0965 183.801 33.6706C183.808 35.2887 183.5 36.8926 182.894 38.3922C181.673 41.4101 179.345 43.8444 176.39 45.1947C174.889 45.883 173.244 46.2269 171.455 46.2265ZM165.002 33.6357C165 34.5784 165.141 35.516 165.421 36.4161C165.684 37.2838 166.104 38.0958 166.659 38.8119C167.209 39.5142 167.905 40.0873 168.699 40.4907C169.514 40.9104 170.444 41.1202 171.489 41.1202C172.583 41.1202 173.536 40.9045 174.349 40.4732C175.146 40.0571 175.837 39.4652 176.372 38.7419C176.912 38.0088 177.32 37.186 177.575 36.3112C177.842 35.4205 177.977 34.4956 177.977 33.5657C177.979 32.6286 177.838 31.6967 177.558 30.8027C177.288 29.9343 176.863 29.1225 176.302 28.407C175.752 27.7025 175.048 27.1342 174.245 26.7457C173.43 26.3498 172.512 26.1516 171.489 26.1511C170.396 26.1511 169.449 26.361 168.647 26.7807C167.857 27.1905 167.166 27.7696 166.624 28.4769C166.072 29.199 165.658 30.0172 165.403 30.8902C165.137 31.7808 165.001 32.7057 165.001 33.6357H165.002Z" fill="#282828"/>
<path d="M187.986 46.0516V21.2197H193.706V41.0153H200.368V21.2197H206.087V41.0153H212.714V21.2197H218.434V46.0516H187.986Z" fill="#E94A4B"/>
<path d="M230.291 21.2197H236.466L244.976 46.0516H239.117L237.438 40.4907H229.281L227.607 46.0516H221.748L230.291 21.2197ZM236.243 36.5385L233.36 26.9905L230.478 36.5385H236.243Z" fill="#E94A4B"/>
<path d="M248.287 46.0516V21.2197H258.857C260.043 21.2197 261.13 21.4587 262.118 21.9367C263.09 22.4028 263.961 23.0564 264.681 23.8603C265.397 24.6561 265.964 25.5742 266.355 26.5708C266.746 27.5497 266.947 28.5942 266.948 29.6486C266.951 31.0618 266.61 32.4543 265.954 33.7056C265.313 34.9644 264.365 36.0409 263.199 36.8358C262.025 37.6402 260.636 38.0424 259.031 38.0424H254.009V46.0516H248.287ZM254.007 33.0411H258.68C259.117 33.0428 259.544 32.9084 259.901 32.6564C260.273 32.4004 260.575 32.0156 260.808 31.5022C261.04 30.9888 261.157 30.3593 261.157 29.6136C261.157 28.8442 261.023 28.2088 260.756 27.7075C260.488 27.2062 260.151 26.839 259.744 26.6058C259.358 26.3784 258.919 26.2578 258.471 26.2561H254.007V33.0411Z" fill="#E94A4B"/>
<path d="M275.318 21.2197H281.492L290.002 46.0516H284.142L282.464 40.4907H274.31L272.631 46.0516H266.771L275.318 21.2197ZM281.271 36.5385L278.388 26.9905L275.505 36.5385H281.271Z" fill="#E94A4B"/>
</g>
<defs>
<clipPath id="clip0_46_770">
<rect width="290" height="70" fill="white"/>
</clipPath>
</defs>
</svg>
