<svg width="601" height="360" viewBox="0 0 601 360" fill="none" xmlns="http://www.w3.org/2000/svg">
<g>
<path d="M359.01 180C359.01 279.143 278.639 359.5 179.5 359.5C80.361 359.5 0 279.139 0 180C0 80.867 80.362 0.5 179.5 0.5C278.637 0.5 359.01 80.871 359.01 180Z" fill="#D9222A"/>
<path d="M420.489 0.495972C374.11 0.495972 331.846 18.092 299.989 46.963C293.499 52.852 287.441 59.2 281.864 65.959H318.131C323.096 71.996 327.667 78.346 331.816 84.971H268.181C264.354 91.093 260.9 97.44 257.839 103.979H342.152C345.046 110.164 347.583 116.509 349.753 122.983H250.24C248.15 129.217 246.408 135.563 245.023 141.991H354.963C357.652 154.481 359.008 167.222 359.005 179.999C359.005 199.934 355.751 219.111 349.751 237.02H250.238C252.402 243.497 254.938 249.844 257.834 256.028H342.15C339.087 262.569 335.631 268.917 331.803 275.041H268.178C272.325 281.661 276.897 288.007 281.863 294.037H318.122C312.552 300.809 306.492 307.164 299.992 313.05C331.849 341.916 374.109 359.504 420.492 359.504C519.631 359.504 600.002 279.143 600.002 180.004C600.002 80.875 519.631 0.503967 420.492 0.503967" fill="#EE9F2D"/>
<path d="M576.069 280.06C576.069 276.861 578.661 274.259 581.865 274.259C585.069 274.259 587.661 276.861 587.661 280.06C587.661 283.259 585.069 285.861 581.865 285.861C578.661 285.861 576.069 283.259 576.069 280.06ZM581.865 284.468C584.299 284.467 586.272 282.494 586.273 280.06C586.273 277.628 584.302 275.658 581.871 275.656H581.865C579.436 275.653 577.465 277.619 577.461 280.047V280.061C577.459 282.494 579.429 284.467 581.861 284.469C581.862 284.468 581.864 284.468 581.865 284.468ZM581.082 282.608H579.895V277.512H582.044C582.494 277.512 582.952 277.512 583.349 277.766C583.762 278.045 583.995 278.537 583.995 279.045C583.995 279.616 583.657 280.149 583.111 280.357L584.049 282.607H582.734L581.955 280.59H581.084L581.082 282.608ZM581.082 279.718H581.74C581.986 279.718 582.245 279.739 582.466 279.618C582.661 279.493 582.762 279.259 582.762 279.034C582.757 278.825 582.65 278.632 582.474 278.516C582.267 278.387 581.938 278.415 581.716 278.415H581.082V279.718ZM137.582 199.655C135.536 199.417 134.637 199.354 133.232 199.354C122.186 199.354 116.594 203.141 116.594 210.622C116.594 215.233 119.323 218.167 123.581 218.167C131.52 218.167 137.24 210.608 137.582 199.655ZM151.753 232.651H135.607L135.978 224.975C131.052 231.04 124.482 233.924 115.552 233.924C104.989 233.924 97.7482 225.674 97.7482 213.695C97.7482 195.671 110.344 185.154 131.965 185.154C134.173 185.154 137.007 185.353 139.906 185.724C140.51 183.283 140.669 182.236 140.669 180.923C140.669 176.015 137.273 174.186 128.169 174.186C118.636 174.078 110.773 176.457 107.544 177.519C107.748 176.29 110.244 160.86 110.244 160.86C119.956 158.014 126.36 156.943 133.569 156.943C150.301 156.943 159.165 164.456 159.148 178.655C159.181 182.46 158.551 187.155 157.569 193.326C155.878 204.06 152.249 227.047 151.753 232.651ZM89.5952 232.651H70.1082L81.2702 162.654L56.3452 232.651H43.0662L41.4242 163.054L29.6912 232.651H11.4492L26.6862 141.595H54.7072L56.4072 192.563L73.4992 141.595H104.666L89.5952 232.651ZM444.565 199.655C442.528 199.417 441.624 199.354 440.223 199.354C429.182 199.354 423.589 203.141 423.589 210.622C423.589 215.233 426.315 218.167 430.572 218.167C438.512 218.167 444.236 210.608 444.565 199.655ZM458.749 232.651H442.603L442.969 224.975C438.043 231.04 431.469 233.924 422.547 233.924C411.982 233.924 404.747 225.674 404.747 213.695C404.747 195.671 417.335 185.154 438.96 185.154C441.168 185.154 443.997 185.353 446.894 185.724C447.498 183.283 447.657 182.236 447.657 180.923C447.657 176.015 444.265 174.186 435.161 174.186C425.628 174.078 417.774 176.457 414.532 177.519C414.736 176.29 417.241 160.86 417.241 160.86C426.953 158.014 433.353 156.943 440.554 156.943C457.294 156.943 466.158 164.456 466.141 178.655C466.173 182.46 465.544 187.155 464.562 193.326C462.878 204.06 459.241 227.047 458.749 232.651ZM238.359 231.526C233.026 233.205 228.868 233.924 224.359 233.924C214.397 233.924 208.96 228.199 208.96 217.657C208.818 214.386 210.393 205.777 211.631 197.92C212.756 191.003 220.08 147.391 220.08 147.391H239.451L237.188 158.599H248.887L246.245 176.395H234.503C232.253 190.478 229.049 208.02 229.012 210.345C229.012 214.161 231.049 215.828 235.683 215.828C237.904 215.828 239.623 215.601 240.937 215.128L238.359 231.526ZM297.751 230.926C291.097 232.96 284.676 233.943 277.872 233.926C256.188 233.905 244.885 222.58 244.885 200.894C244.885 175.581 259.265 156.947 278.784 156.947C294.755 156.947 304.955 167.38 304.955 183.743C304.955 189.172 304.255 194.472 302.567 201.955H263.993C262.688 212.696 269.563 217.172 280.83 217.172C287.765 217.172 294.018 215.743 300.972 212.509L297.751 230.926ZM286.863 187.026C286.97 185.483 288.918 173.809 277.85 173.809C271.679 173.809 267.267 178.513 265.47 187.026H286.863ZM163.443 182.009C163.443 191.376 167.985 197.835 178.285 202.685C186.177 206.394 187.397 207.495 187.397 210.855C187.397 215.472 183.918 217.556 176.206 217.556C170.393 217.556 164.985 216.648 158.748 214.634C158.748 214.634 156.185 230.955 156.068 231.736C160.498 232.703 164.448 233.597 176.347 233.926C196.91 233.926 206.406 226.097 206.406 209.176C206.406 199.001 202.43 193.03 192.669 188.542C184.498 184.792 183.561 183.955 183.561 180.497C183.561 176.493 186.798 174.451 193.098 174.451C196.923 174.451 202.148 174.859 207.098 175.563L209.873 158.388C204.827 157.588 197.177 156.946 192.723 156.946C170.922 156.947 163.376 168.334 163.443 182.009ZM392.533 158.893C397.945 158.893 402.991 160.314 409.945 163.814L413.133 144.051C410.279 142.93 400.229 136.351 391.716 136.351C378.675 136.351 367.651 142.822 359.896 153.501C348.587 149.755 343.938 157.326 338.239 164.868L333.176 166.047C333.559 163.564 333.905 161.097 333.788 158.601H315.892C313.447 181.518 309.114 204.729 305.721 227.676L304.837 232.652H324.333C327.587 211.509 329.37 197.972 330.454 188.81L337.795 184.726C338.892 180.648 342.324 179.268 349.212 179.435C348.286 184.443 347.823 189.526 347.829 194.619C347.829 218.844 360.899 233.927 381.879 233.927C387.283 233.927 391.92 233.215 399.1 231.269L402.53 210.51C396.072 213.691 390.771 215.187 385.971 215.187C374.642 215.187 367.787 206.824 367.787 193.002C367.787 172.951 377.983 158.893 392.533 158.893Z" fill="black"/>
<path d="M95.2095 227.24H75.7184L86.8895 157.252L61.9635 227.24H48.6805L47.0385 157.652L35.3055 227.24H17.0645L32.3015 136.198H60.3224L61.1104 192.56L80.0145 136.198H110.281L95.2095 227.24Z" fill="white"/>
<path d="M557.52 141.6L553.199 167.909C547.87 160.896 542.145 155.821 534.587 155.821C524.754 155.821 515.804 163.276 509.945 174.246C501.787 172.554 493.348 169.683 493.348 169.683L493.344 169.75C494.002 163.616 494.265 159.875 494.206 158.604H476.306C473.868 181.521 469.535 204.732 466.149 227.679L465.256 232.655H484.748C487.381 215.559 489.396 201.364 490.881 190.104C497.539 184.088 500.873 178.838 507.602 179.188C504.623 186.393 502.877 194.691 502.877 203.205C502.877 221.718 512.243 233.93 526.41 233.93C533.552 233.93 539.031 231.468 544.377 225.759L543.464 232.643H561.899L576.741 141.601L557.52 141.6ZM533.149 215.541C526.515 215.541 523.166 210.633 523.166 200.945C523.166 186.39 529.437 176.07 538.278 176.07C544.973 176.07 548.598 181.174 548.598 190.579C548.599 205.258 542.228 215.541 533.149 215.541Z" fill="black"/>
<path d="M143.19 194.26C141.148 194.024 140.244 193.961 138.844 193.961C127.798 193.961 122.21 197.748 122.21 205.227C122.21 209.831 124.939 212.774 129.189 212.774C137.136 212.773 142.857 205.215 143.19 194.26ZM157.368 227.244H141.222L141.589 219.581C136.668 225.635 130.089 228.531 121.168 228.531C110.601 228.531 103.363 220.281 103.363 208.302C103.363 190.27 115.955 179.76 137.58 179.76C139.788 179.76 142.622 179.96 145.518 180.331C146.122 177.89 146.281 176.844 146.281 175.523C146.281 170.614 142.889 168.794 133.785 168.794C124.248 168.686 116.389 171.065 113.156 172.115C113.36 170.89 115.856 155.478 115.856 155.478C125.564 152.62 131.976 151.549 139.176 151.549C155.913 151.549 164.78 159.066 164.764 173.253C164.793 177.074 164.16 181.766 163.18 187.928C161.493 198.652 157.861 221.652 157.368 227.244ZM418.748 138.652L415.557 158.419C408.607 154.923 403.557 153.499 398.15 153.499C383.599 153.499 373.4 167.557 373.4 187.605C373.4 201.426 380.257 209.786 391.584 209.786C396.384 209.786 401.68 208.294 408.138 205.111L404.717 225.861C397.533 227.818 392.901 228.531 387.492 228.531C366.515 228.531 353.441 213.447 353.441 189.222C353.441 156.672 371.5 133.922 397.329 133.922C405.836 133.923 415.89 137.531 418.748 138.652ZM450.191 194.26C448.15 194.024 447.25 193.961 445.844 193.961C434.803 193.961 429.211 197.748 429.211 205.227C429.211 209.831 431.94 212.774 436.194 212.774C444.132 212.773 449.857 205.215 450.191 194.26ZM464.369 227.244H448.219L448.59 219.581C443.665 225.635 437.09 228.531 428.169 228.531C417.606 228.531 410.365 220.281 410.365 208.302C410.365 190.27 422.961 179.76 444.577 179.76C446.79 179.76 449.619 179.96 452.518 180.331C453.119 177.89 453.281 176.844 453.281 175.523C453.281 170.614 449.888 168.794 440.786 168.794C431.253 168.686 423.39 171.065 420.156 172.115C420.36 170.89 422.86 155.478 422.86 155.478C432.569 152.62 438.976 151.549 446.176 151.549C462.917 151.549 471.78 159.066 471.759 173.253C471.792 177.074 471.163 181.766 470.18 187.928C468.498 198.652 464.857 221.652 464.369 227.244ZM243.979 226.123C238.641 227.802 234.483 228.531 229.979 228.531C220.017 228.531 214.58 222.805 214.58 212.263C214.442 208.984 216.018 200.383 217.255 192.527C218.375 185.601 225.7 141.993 225.7 141.993H245.068L242.808 153.205H252.749L250.103 170.993H240.128C237.878 185.085 234.665 202.613 234.632 204.943C234.632 208.773 236.673 210.425 241.303 210.425C243.524 210.425 245.241 210.209 246.557 209.734L243.979 226.123ZM303.37 225.531C296.72 227.564 290.291 228.543 283.491 228.531C261.806 228.51 250.504 217.185 250.504 195.498C250.504 170.177 264.883 151.548 284.403 151.548C300.374 151.548 310.574 161.977 310.574 178.348C310.574 183.782 309.874 189.081 308.19 196.56H269.616C268.31 207.301 275.185 211.782 286.453 211.782C293.383 211.782 299.641 210.347 306.591 207.105L303.37 225.531ZM292.479 181.619C292.595 180.081 294.539 168.402 283.466 168.402C277.299 168.402 272.887 173.119 271.091 181.619H292.479ZM169.059 176.614C169.059 185.981 173.601 192.432 183.901 197.289C191.793 200.998 193.013 202.101 193.013 205.461C193.013 210.077 189.53 212.16 181.825 212.16C176.009 212.16 170.6 211.252 164.358 209.239C164.358 209.239 161.804 225.56 161.687 226.34C166.108 227.307 170.062 228.19 181.962 228.531C202.528 228.531 212.021 220.702 212.021 203.785C212.021 193.605 208.05 187.635 198.284 183.148C190.117 179.389 189.171 178.564 189.171 175.102C189.171 171.102 192.417 169.043 198.713 169.043C202.534 169.043 207.759 169.464 212.717 170.168L215.488 152.989C210.446 152.189 202.796 151.548 198.342 151.548C176.538 151.548 168.996 162.927 169.059 176.614ZM567.509 227.244H549.071L549.988 220.351C544.641 226.068 539.163 228.531 532.02 228.531C517.854 228.531 508.492 216.318 508.492 197.805C508.492 173.175 523.013 152.413 540.2 152.413C547.759 152.413 553.479 155.5 558.804 162.509L563.129 136.201H582.35L567.509 227.244ZM538.763 210.135C547.838 210.135 554.213 199.852 554.213 185.182C554.213 175.777 550.584 170.673 543.888 170.673C535.051 170.673 528.773 180.988 528.773 195.548C528.772 205.234 532.13 210.135 538.763 210.135ZM481.921 153.206C479.48 176.123 475.148 199.336 471.759 222.269L470.867 227.245H490.358C497.33 181.97 499.016 173.128 509.946 174.236C511.688 164.969 514.928 156.853 517.345 152.757C509.182 151.057 504.624 155.67 498.657 164.432C499.128 160.644 499.99 156.965 499.819 153.207L481.921 153.206ZM321.501 153.206C319.055 176.123 314.722 199.336 311.334 222.269L310.446 227.245H329.946C336.909 181.97 338.592 173.128 349.516 174.236C351.266 164.969 354.507 156.853 356.915 152.757C348.761 151.057 344.198 155.67 338.236 164.432C338.707 160.644 339.56 156.965 339.398 153.207L321.501 153.206ZM576.071 221.447C576.067 218.248 578.657 215.652 581.855 215.648H581.867C585.064 215.644 587.66 218.234 587.663 221.431V221.447C587.662 224.648 585.068 227.242 581.867 227.244C578.666 227.242 576.072 224.648 576.071 221.447ZM581.867 225.852C584.298 225.854 586.269 223.883 586.27 221.453V221.449C586.273 219.016 584.302 217.043 581.871 217.041H581.867C579.432 217.042 577.46 219.015 577.459 221.449C577.461 223.881 579.434 225.852 581.867 225.852ZM581.083 223.981H579.895V218.899H582.048C582.494 218.899 582.957 218.908 583.344 219.153C583.761 219.436 583.998 219.92 583.998 220.427C583.998 221.002 583.661 221.539 583.11 221.744L584.051 223.98H582.731L581.952 221.971H581.082L581.083 223.981ZM581.083 221.102H581.736C581.982 221.102 582.249 221.121 582.465 221.002C582.661 220.877 582.761 220.641 582.761 220.414C582.752 220.204 582.647 220.01 582.474 219.891C582.27 219.774 581.932 219.807 581.711 219.807H581.082L581.083 221.102Z" fill="white"/>
</g>
</svg>
