<svg width="696" height="198" viewBox="0 0 696 198" fill="none" xmlns="http://www.w3.org/2000/svg">
<g>
<path d="M502.1 89.5V197.5H562.1V133.5H630.1C658.7 133.3 683 115 692.2 89.5H502.1Z" fill="#37A72E"/>
<path d="M494.1 0.5C497.6 44.6 539.4 79.5 590.4 79.5H694.7C695.5 75.5 695.9 71.3 695.9 67C695.9 30.4 666.4 0.8 629.9 0.5H494.1Z" fill="#00A0E5"/>
<path d="M405.299 78.4C405.999 77.2 407.099 76.5 408.499 76.5C410.499 76.5 411.999 78.1 412.099 80V196.5H472.099V0.5H412.099C404.499 0.8 395.899 6.3 392.699 13.2L344.999 115.6C344.899 116 344.699 116.4 344.499 116.8C343.799 117.8 342.599 118.5 341.199 118.5C338.999 118.5 337.199 116.7 337.199 114.5V0.5H277.199V196.5H337.199C344.699 196.1 353.099 190.6 356.299 183.8L405.299 78.7C405.199 78.6 405.299 78.5 405.299 78.4Z" fill="#37A72E"/>
<path d="M181.299 81.8L146.199 196.5H102.999L67.9992 81.7C67.6992 79.9 66.0992 78.5 64.0992 78.5C61.8992 78.5 60.1992 80.3 60.1992 82.4V196.4H0.199219V0.400024H51.6992H66.9992C77.9992 0.400024 89.5992 9.00003 92.7992 19.5L121.999 115C123.499 119.8 125.799 119.7 127.299 115L156.499 19.5C159.699 8.90003 171.299 0.400024 182.299 0.400024H197.599H249.099V196.4H189.099V82.4C189.099 82.4 189.099 82.4 189.099 82.3C189.099 80.1 187.299 78.4 185.199 78.4C183.199 78.5 181.599 79.9 181.299 81.8Z" fill="#37A72E"/>
</g>
</svg>
