<svg width="21" height="21" viewBox="0 0 21 21" fill="none" xmlns="http://www.w3.org/2000/svg">
<path fill-rule="evenodd" clip-rule="evenodd" d="M12.0322 1.75C12.5155 1.75 12.9072 2.14175 12.9072 2.625V6.125C12.9072 6.60825 12.5155 7 12.0322 7C11.549 7 11.1572 6.60825 11.1572 6.125V5.25H2.40723C1.92398 5.25 1.53223 4.85825 1.53223 4.375C1.53223 3.89175 1.92398 3.5 2.40723 3.5H11.1572V2.625C11.1572 2.14175 11.549 1.75 12.0322 1.75ZM14.6572 4.375C14.6572 3.89175 15.049 3.5 15.5322 3.5H18.1572C18.6405 3.5 19.0322 3.89175 19.0322 4.375C19.0322 4.85825 18.6405 5.25 18.1572 5.25H15.5322C15.049 5.25 14.6572 4.85825 14.6572 4.375ZM9.40723 7.875C9.89048 7.875 10.2822 8.26675 10.2822 8.75V9.625H19.0322C19.5155 9.625 19.9072 10.0168 19.9072 10.5C19.9072 10.9832 19.5155 11.375 19.0322 11.375H10.2822V12.25C10.2822 12.7332 9.89048 13.125 9.40723 13.125C8.92398 13.125 8.53223 12.7332 8.53223 12.25V8.75C8.53223 8.26675 8.92398 7.875 9.40723 7.875ZM1.53223 10.5C1.53223 10.0168 1.92398 9.625 2.40723 9.625H5.90723C6.39048 9.625 6.78223 10.0168 6.78223 10.5C6.78223 10.9832 6.39048 11.375 5.90723 11.375H2.40723C1.92398 11.375 1.53223 10.9832 1.53223 10.5ZM12.0322 14C12.5155 14 12.9072 14.3918 12.9072 14.875V18.375C12.9072 18.8582 12.5155 19.25 12.0322 19.25C11.549 19.25 11.1572 18.8582 11.1572 18.375V17.5H2.40723C1.92398 17.5 1.53223 17.1082 1.53223 16.625C1.53223 16.1418 1.92398 15.75 2.40723 15.75H11.1572V14.875C11.1572 14.3918 11.549 14 12.0322 14ZM14.6572 16.625C14.6572 16.1418 15.049 15.75 15.5322 15.75H18.1572C18.6405 15.75 19.0322 16.1418 19.0322 16.625C19.0322 17.1082 18.6405 17.5 18.1572 17.5H15.5322C15.049 17.5 14.6572 17.1082 14.6572 16.625Z" fill="#E94A4B"/>
</svg>
