<svg width="572" height="362" viewBox="0 0 572 362" fill="none" xmlns="http://www.w3.org/2000/svg">
<g>
<path d="M112.399 0.791016H254.789C274.659 0.791016 287.076 17.197 282.419 37.261L216.086 324.741C211.43 344.804 191.457 361.211 171.588 361.211H29.1984C9.32844 361.211 -3.08857 344.805 1.56843 324.741L67.8994 37.261C72.5564 17.093 92.4254 0.791016 112.294 0.791016H112.399Z" fill="#D10429"/>
<path d="M242.34 0.791016H406.16C426.027 0.791016 417.025 17.197 412.369 37.261L346.035 324.741C341.377 344.804 342.826 361.211 322.957 361.211H159.147C139.175 361.211 126.86 344.805 131.62 324.741L197.954 37.261C202.61 17.093 222.478 0.791016 242.452 0.791016H242.348H242.34Z" fill="#022E64"/>
<path d="M400.41 0.791016H542.8C562.669 0.791016 575.087 17.197 570.431 37.261L504.097 324.741C499.441 344.804 479.468 361.211 459.599 361.211H317.209C297.236 361.211 284.921 344.805 289.578 324.741L355.912 37.261C360.568 17.093 380.437 0.791016 400.305 0.791016H400.41Z" fill="#076F74"/>
<path d="M376.5 271.81H389.953L393.781 258.747H380.431L376.5 271.81ZM387.262 235.86L382.604 251.327C382.604 251.327 387.676 248.714 390.469 247.878C393.264 247.251 397.403 246.728 397.403 246.728L400.61 235.965H387.159L387.262 235.86ZM393.988 213.707L389.539 228.546C389.539 228.546 394.506 226.246 397.299 225.517C400.094 224.785 404.233 224.576 404.233 224.576L407.44 213.812H394.092L393.988 213.707ZM423.688 213.707L406.303 271.704H410.959L407.338 283.722H402.68L401.543 287.379H384.984L386.123 283.722H352.594L355.905 272.646H359.321L376.915 213.708L380.433 201.795H397.3L395.54 207.751C395.54 207.751 399.989 204.512 404.337 203.361C408.581 202.213 433.003 201.795 433.003 201.795L429.38 213.604H423.585L423.688 213.707Z" fill="#FEFEFE"/>
<path d="M430.59 201.79H448.596L448.803 208.582C448.701 209.731 449.631 210.254 451.805 210.254H455.426L452.115 221.437H442.386C434.005 222.064 430.796 218.407 431.003 214.331L430.692 201.894L430.59 201.79ZM432.807 254.99H415.629L418.525 245.063H438.187L440.98 235.971H421.63L424.941 224.789H478.753L475.441 235.971H457.332L454.539 245.063H472.648L469.646 254.99H450.087L446.569 259.17H454.538L456.503 271.71C456.71 272.964 456.71 273.8 457.124 274.323C457.538 274.741 459.919 274.95 461.263 274.95H463.644L459.919 287.177H453.812C452.882 287.177 451.433 287.073 449.466 287.073C447.603 286.863 446.362 285.818 445.12 285.191C443.981 284.669 442.327 283.31 441.913 280.907L440.05 268.367L431.15 280.698C428.355 284.564 424.529 287.595 418.007 287.595H405.59L408.901 276.726H413.663C415.009 276.726 416.251 276.205 417.183 275.681C418.113 275.263 418.941 274.845 419.769 273.488L432.807 254.99ZM244.907 227.79H290.336L287.024 238.763H268.914L266.121 248.062H284.748L281.333 259.349H262.809L258.256 274.501C257.739 276.173 262.706 276.382 264.465 276.382L273.778 275.128L270.052 287.668H249.148C247.494 287.668 246.252 287.459 244.388 287.041C242.628 286.623 241.801 285.787 241.077 284.638C240.351 283.384 239.109 282.443 239.937 279.726L245.939 259.663H235.592L239.007 248.168H249.355L252.149 238.868H241.802L245.114 227.894L244.907 227.79ZM276.294 207.955H294.92L291.506 219.345H266.048L263.254 221.749C262.012 222.899 261.702 222.481 260.149 223.317C258.702 224.047 255.7 225.51 251.767 225.51H243.592L246.903 214.538H249.387C251.457 214.538 252.907 214.328 253.63 213.911C254.458 213.389 255.39 212.239 256.32 210.357L260.976 201.789H279.502L276.294 208.059V207.955ZM311.4 226.765C311.4 226.765 316.47 222.064 325.164 220.601C327.131 220.183 339.549 220.39 339.549 220.39L341.412 214.12H315.23L311.4 226.87V226.765ZM336.029 231.572H310.054L308.503 236.901H331.062C333.753 236.588 334.271 237.005 334.478 236.797L336.132 231.572H336.029ZM302.295 201.894H318.127L315.852 209.941C315.852 209.941 320.819 205.866 324.336 204.402C327.856 203.148 335.719 201.894 335.719 201.894L361.383 201.79L352.588 231.259C351.139 236.275 349.379 239.515 348.344 241.082C347.414 242.545 346.274 243.903 343.998 245.157C341.826 246.307 339.857 247.038 337.996 247.143C336.34 247.247 333.65 247.352 330.131 247.352H305.399L298.465 270.655C297.846 272.954 297.535 274.102 297.949 274.729C298.258 275.252 299.189 275.879 300.328 275.879L311.193 274.834L307.468 287.583H295.257C291.325 287.583 288.53 287.479 286.564 287.373C284.702 287.165 282.734 287.373 281.39 286.329C280.252 285.284 278.494 283.926 278.596 282.566C278.7 281.312 279.217 279.222 280.046 276.296L302.295 201.894Z" fill="#FEFEFE"/>
<path d="M348.43 248.79L346.981 255.895C346.362 258.089 345.844 259.762 344.188 261.225C342.428 262.688 340.463 264.255 335.704 264.255L326.907 264.673L326.803 272.615C326.699 274.808 327.321 274.599 327.631 275.017C328.045 275.435 328.354 275.54 328.768 275.749L331.563 275.539L339.946 275.122L336.426 286.826H326.803C320.076 286.826 315.006 286.616 313.453 285.363C311.797 284.317 311.59 283.063 311.59 280.764L312.211 249.623H327.631L327.424 255.997H331.149C332.391 255.997 333.323 255.893 333.84 255.579C334.356 255.266 334.668 254.743 334.875 254.012L336.426 248.996H348.535L348.43 248.79ZM129.06 92.79C128.543 95.298 118.609 141.382 118.609 141.382C116.435 150.682 114.883 157.371 109.709 161.655C106.708 164.163 103.189 165.312 99.1539 165.312C92.6339 165.312 88.9088 162.073 88.2878 155.908L88.1839 153.818C88.1839 153.818 90.1498 141.382 90.1498 141.278C90.1498 141.278 100.499 99.269 102.362 93.73C102.465 93.417 102.465 93.208 102.465 93.103C82.2848 93.313 78.6638 93.103 78.4568 92.79C78.3528 93.208 77.8358 95.8201 77.8358 95.8201L67.2798 143.16L66.3479 147.13L64.5898 160.298C64.5898 164.164 65.3139 167.403 66.8669 170.016C71.7299 178.585 85.4939 179.839 93.2549 179.839C103.293 179.839 112.71 177.644 119.022 173.778C130.095 167.194 132.992 156.849 135.476 147.758L136.718 143.055C136.718 143.055 147.377 99.479 149.24 93.836C149.343 93.522 149.343 93.313 149.447 93.209C134.752 93.313 130.509 93.2091 129.06 92.8951V92.79ZM188.089 179.413C180.948 179.308 178.361 179.308 169.979 179.726L169.668 179.099C170.392 175.859 171.22 172.725 171.841 169.485L172.876 165.096C174.428 158.304 175.877 150.257 176.084 147.854C176.291 146.391 176.704 142.734 172.565 142.734C170.806 142.734 169.047 143.569 167.185 144.405C166.149 148.063 164.183 158.304 163.148 162.902C161.078 172.725 160.975 173.874 160.044 178.682L159.423 179.308C152.076 179.204 149.489 179.204 141.003 179.622L140.589 178.89C142.038 173.038 143.383 167.186 144.729 161.334C148.247 145.554 149.179 139.494 150.109 131.447L150.834 131.029C159.113 129.88 161.079 129.566 170.082 127.79L170.806 128.626L169.461 133.642C171.013 132.702 172.462 131.761 174.014 131.029C178.257 128.939 182.914 128.312 185.501 128.312C189.433 128.312 193.78 129.462 195.539 134.06C197.195 138.135 196.159 143.151 193.883 153.079L192.745 158.095C190.468 169.172 190.055 171.157 188.812 178.681L187.985 179.308L188.089 179.413ZM217.147 179.44C212.801 179.44 210.007 179.336 207.317 179.44C204.626 179.44 202.039 179.65 198.003 179.754L197.796 179.44L197.589 179.022C198.727 174.842 199.245 173.379 199.866 171.916C200.383 170.453 200.9 168.99 201.936 164.706C203.177 159.167 204.005 155.301 204.522 151.852C205.143 148.612 205.454 145.792 205.868 142.552L206.178 142.343L206.488 142.03C210.835 141.403 213.526 140.985 216.32 140.567C219.114 140.149 222.011 139.627 226.461 138.791L226.668 139.209L226.771 139.627L224.289 149.972C223.461 153.421 222.633 156.869 221.909 160.318C220.355 167.633 219.632 170.35 219.322 172.335C218.908 174.216 218.803 175.157 218.182 178.919L217.768 179.232L217.354 179.546L217.147 179.44ZM263.088 153.765C262.778 155.646 261.122 162.648 258.949 165.574C257.396 167.768 255.637 169.127 253.567 169.127C252.947 169.127 249.427 169.127 249.325 163.797C249.325 161.185 249.842 158.467 250.463 155.542C252.326 147.077 254.603 140.076 260.294 140.076C264.745 140.076 265.054 145.301 263.088 153.765ZM281.819 154.601C284.302 143.524 282.337 138.299 279.957 135.164C276.231 130.357 269.609 128.79 262.779 128.79C258.638 128.79 248.912 129.208 241.254 136.314C235.77 141.434 233.183 148.436 231.734 155.124C230.18 161.916 228.422 174.143 239.598 178.741C243.012 180.204 247.98 180.621 251.188 180.621C259.364 180.621 267.746 178.323 274.058 171.635C278.921 166.201 281.094 158.05 281.922 154.601H281.819ZM456.249 180.681C447.556 180.577 445.073 180.577 437.104 180.995L436.586 180.368C438.76 172.112 440.932 163.752 442.898 155.392C445.382 144.524 446.003 139.926 446.832 133.552L447.451 133.03C456.041 131.776 458.422 131.463 467.424 129.791L467.631 130.522C465.975 137.419 464.424 144.212 462.768 151.004C459.457 165.321 458.317 172.636 457.077 180.16L456.249 180.787V180.681Z" fill="#FEFEFE"/>
<path d="M443.75 155.16C443.336 156.936 441.68 164.042 439.508 166.968C438.059 169.058 434.541 170.417 432.574 170.417C431.953 170.417 428.539 170.417 428.332 165.192C428.332 162.579 428.848 159.862 429.469 156.936C431.332 148.681 433.61 141.679 439.301 141.679C443.75 141.679 445.717 146.799 443.75 155.264V155.16ZM460.826 155.996C463.308 144.919 453.168 155.056 451.615 151.398C449.131 145.65 450.683 134.155 440.75 130.289C436.92 128.721 427.918 130.707 420.26 137.813C414.879 142.829 412.188 149.83 410.74 156.518C409.185 163.206 407.428 175.538 418.5 179.822C422.02 181.389 425.227 181.807 428.434 181.598C439.612 180.971 448.096 163.937 454.411 157.249C459.271 151.92 460.1 159.235 460.826 155.996ZM330.886 179.409C323.745 179.304 321.261 179.304 312.88 179.722L312.569 179.095C313.294 175.855 314.122 172.721 314.844 169.481L315.776 165.092C317.329 158.3 318.881 150.253 318.983 147.85C319.19 146.387 319.604 142.73 315.569 142.73C313.809 142.73 311.948 143.565 310.188 144.401C309.256 148.059 307.186 158.3 306.151 162.898C304.186 172.721 303.979 173.87 303.047 178.678L302.426 179.304C295.08 179.2 292.492 179.2 284.007 179.618L283.593 178.886C285.042 173.034 286.387 167.182 287.733 161.33C291.251 145.55 292.079 139.49 293.112 131.443L293.733 131.025C302.014 129.876 304.083 129.562 312.981 127.786L313.708 128.622L312.466 133.638C313.915 132.698 315.466 131.757 316.915 131.025C321.159 128.935 325.815 128.308 328.401 128.308C332.335 128.308 336.577 129.458 338.438 134.056C340.094 138.131 338.958 143.147 336.68 153.075L335.541 158.091C333.162 169.168 332.852 171.153 331.607 178.677L330.781 179.304L330.886 179.409ZM392.886 92.89L386.884 92.995C371.361 93.204 365.152 93.099 362.669 92.786C362.462 93.936 362.048 95.921 362.048 95.921C362.048 95.921 356.46 121.837 356.46 121.941C356.46 121.941 343.214 177.117 342.593 179.729C356.15 179.52 361.634 179.52 364.015 179.834C364.533 177.221 367.636 161.86 367.74 161.86C367.74 161.86 370.431 150.574 370.535 150.156C370.535 150.156 371.361 149.006 372.189 148.484H373.431C385.126 148.484 398.267 148.484 408.617 140.856C415.654 135.631 420.414 127.793 422.588 118.388C423.104 116.089 423.518 113.372 423.518 110.551C423.518 106.893 422.795 103.341 420.725 100.519C415.446 93.099 404.993 92.995 392.886 92.89ZM400.648 119.956C399.406 125.703 395.681 130.615 390.921 132.914C386.987 134.899 382.228 135.108 377.261 135.108H374.052L374.259 133.854C374.259 133.854 380.159 107.938 380.159 108.043L380.364 106.684L380.468 105.639L382.849 105.849C382.849 105.849 395.06 106.893 395.267 106.893C400.026 108.774 402.097 113.581 400.648 119.956ZM527.858 128.622L527.133 127.786C518.338 129.562 516.682 129.876 508.61 131.026L507.989 131.652C507.989 131.757 507.885 131.862 507.885 132.07V131.966C501.883 146.073 501.987 143.043 497.123 154.12C497.123 153.597 497.123 153.284 497.019 152.761L495.777 128.726L495.052 127.89C485.738 129.667 485.532 129.98 477.046 131.13L476.425 131.757C476.321 132.07 476.321 132.384 476.321 132.697L476.425 132.802C477.46 138.34 477.253 137.086 478.288 145.76C478.806 150.044 479.427 154.329 479.942 158.509C480.77 165.615 481.29 169.063 482.323 179.827C476.528 189.44 475.182 193.098 469.594 201.561L469.905 202.397C478.288 202.085 480.149 202.085 486.358 202.085L487.706 200.517C492.36 190.382 527.96 128.727 527.96 128.727L527.858 128.622ZM225.138 135.544C229.898 132.2 230.518 127.602 226.483 125.199C222.447 122.795 215.307 123.527 210.546 126.871C205.786 130.111 205.269 134.708 209.305 137.216C213.237 139.516 220.378 138.888 225.138 135.544Z" fill="#FEFEFE"/>
<path d="M486.331 201.9L479.395 213.919C477.223 217.994 473.084 221.129 466.668 221.129L455.594 220.92L458.803 210.052H460.975C462.114 210.052 462.942 209.948 463.563 209.634C464.184 209.425 464.495 209.007 465.012 208.38L469.151 201.797H486.432L486.331 201.9Z" fill="#FEFEFE"/>
</g>
</svg>
