<svg width="660" height="204" viewBox="0 0 660 204" fill="none" xmlns="http://www.w3.org/2000/svg">
<g>
<path d="M233.2 200.73L266.559 4.97002H319.917L286.533 200.73H233.2ZM479.31 9.19002C468.741 5.22402 452.175 0.968018 431.489 0.968018C378.763 0.968018 341.626 27.519 341.308 65.572C341.011 93.701 367.823 109.394 388.062 118.757C408.833 128.355 415.814 134.473 415.714 143.04C415.581 156.163 399.128 162.155 383.79 162.155C362.435 162.155 351.089 159.188 333.565 151.882L326.687 148.771L319.2 192.593C331.663 198.06 354.708 202.792 378.638 203.038C434.728 203.038 471.14 176.79 471.554 136.153C471.753 113.883 457.538 96.938 426.753 82.965C408.103 73.909 396.681 67.866 396.802 58.696C396.802 50.559 406.47 41.858 427.362 41.858C444.808 41.587 457.45 45.392 467.298 49.358L472.079 51.617L479.31 9.19002ZM616.62 4.96701H575.39C562.618 4.96701 553.058 8.45302 547.45 21.201L468.205 200.601H524.236C524.236 200.601 533.395 176.48 535.467 171.183C541.59 171.183 596.022 171.267 603.803 171.267C605.399 178.121 610.295 200.601 610.295 200.601H659.807L616.62 4.96101V4.96701ZM551.203 131.377C555.617 120.098 572.463 76.653 572.463 76.653C572.149 77.174 576.844 65.319 579.537 57.969L583.143 74.847C583.143 74.847 593.36 121.576 595.496 131.374H551.203V131.377ZM187.903 4.96701L135.664 138.467L130.099 111.338C120.373 80.064 90.0742 46.181 56.2012 29.218L103.968 200.418L160.423 200.355L244.427 4.96501L187.903 4.96402" fill="#0E4595"/>
<path d="M86.9203 4.95996H0.879269L0.197266 9.03296C67.1363 25.237 111.427 64.396 129.817 111.453L111.108 21.493C107.879 9.09695 98.5113 5.39695 86.9223 4.96495" fill="#F2AE14"/>
</g>
</svg>
